<svg width="225" height="225" viewBox="0 0 225 225" fill="none" xmlns="http://www.w3.org/2000/svg">
<rect width="225" height="225" fill="#FEFEFE"/>
<g clip-path="url(#clip0_168_7)">
<path fill-rule="evenodd" clip-rule="evenodd" d="M0 112.504V225.009L112.75 224.754L225.5 224.5L225.754 112.25L226.009 0H113.004H0V112.504ZM0.483 113C0.483 174.875 0.603 200.188 0.75 169.25C0.897 138.313 0.897 87.688 0.75 56.75C0.603 25.813 0.483 51.125 0.483 113ZM94.516 26.659C66.149 32.737 41.186 53.716 31.074 79.975C11.271 131.401 41.573 187.36 95.208 198.412C142.114 208.077 188.658 177.131 198.412 129.792C208.082 82.861 177.156 36.348 129.792 26.588C120.25 24.622 103.871 24.655 94.516 26.659ZM86.047 45.305C79.045 47.537 73 56.383 73 64.398C73 68.388 75.574 73.786 79.602 78.245C83.55 82.614 86 87.628 86 91.335C86 93.016 84.832 94.507 82.098 96.316C76.768 99.844 72.558 108.382 73.226 114.311C73.951 120.746 76.886 125.961 81.686 129.344C88.103 133.868 87.709 137.684 79.845 147.15C72.885 155.527 71.442 162.041 74.896 169.5C78.033 176.277 85.982 182.01 92.218 181.994C96.63 181.984 102.09 179.86 105.578 176.797C114.588 168.887 115.122 157.884 106.953 148.446C101.745 142.428 100 138.912 100 134.433V130.767L106.38 131.173C111.422 131.494 113.521 132.16 116.389 134.348C120.186 137.244 123.296 142.365 124.418 147.571C125.977 154.8 135.315 161.932 143.282 161.978C162.842 162.092 170.343 135.931 153.704 125.626C148.688 122.519 145.188 122.131 134.396 123.485C126.917 124.424 122.686 123.187 117.673 118.595C112.991 114.306 113.01 111.754 117.762 107.003C122.283 102.482 130.641 100.152 135.587 102.034C140.349 103.845 148.333 103.381 152.951 101.025C163.808 95.486 166.561 79.517 158.186 70.658C152.042 64.159 143.296 62.32 135.459 65.88C130.128 68.301 126.366 72.935 124.489 79.389C121.731 88.877 112.729 95.662 104 94.833C100.881 94.536 100.466 94.153 100.191 91.314C99.812 87.397 102.071 82.809 107.071 77.341C121.144 61.95 106.038 38.932 86.047 45.305ZM91.5 54.811C87.95 55.501 85 59.087 85 62.714C85 66.059 87.555 72.078 91.131 77.154C92.672 79.343 93 81.669 93 90.404C93 100.502 92.901 101 90.9 101C89.745 101 87.27 102.53 85.4 104.4C82.498 107.302 82 108.488 82 112.5C82 116.512 82.498 117.698 85.4 120.6C87.27 122.47 89.745 124 90.9 124C92.9 124 93 124.5 93 134.481C93 144.841 92.958 145.027 89.333 150.694C84.388 158.424 83.72 164.484 87.431 167.95C92.179 172.384 99.701 170.498 102.08 164.277C103.13 161.532 101.384 156.279 97.116 149.344C94.166 144.548 94 143.739 94 134.139C94 124.801 94.152 124 95.923 124C96.981 124 99.223 122.842 100.904 121.427L103.962 118.854L117.009 126.005L130.056 133.156L134.057 141.114C139.294 151.529 143.771 153.588 149.923 148.411C152.404 146.323 153 145.056 153 141.866C153 135.324 150.237 133.458 139.412 132.69C130.576 132.063 130.165 131.916 117.952 125.06L105.5 118.069L104.997 112.649L104.495 107.23L118.175 99.615C131.578 92.154 131.997 92 138.862 92C147.923 92 150.738 90.871 152.562 86.506C153.837 83.456 153.841 82.556 152.598 79.58C151.088 75.965 148.451 74 145.113 74C140.639 74 138.047 76.338 134.092 83.94L130.111 91.592L116.98 98.822L103.85 106.051L100.848 103.526C99.197 102.137 96.981 101 95.923 101C94.153 101 94 100.199 94 90.925C94 80.919 94.028 80.802 98.098 73.951C102.948 65.788 103.511 61.237 100.119 57.626C97.737 55.091 94.874 54.156 91.5 54.811Z" fill="#10A8E5"/>
</g>
<defs>
<clipPath id="clip0_168_7">
<rect width="225" height="225" fill="white"/>
</clipPath>
</defs>
</svg>
